<?xml version="1.0" standalone="no"?>
<!DOCTYPE svg PUBLIC "-//W3C//DTD SVG 20010904//EN"
 "http://www.w3.org/TR/2001/REC-SVG-20010904/DTD/svg10.dtd">
<svg version="1.0" xmlns="http://www.w3.org/2000/svg"
 width="1000.000000pt" height="1000.000000pt" viewBox="0 0 1000.000000 1000.000000"
 preserveAspectRatio="xMidYMid meet">
<metadata>
Created by potrace 1.14, written by Peter Selinger 2001-2017
</metadata>
<g transform="translate(0.000000,1000.000000) scale(0.100000,-0.100000)"
fill="#000000" stroke="none">
<path d="M0 5000 l0 -5000 5000 0 5000 0 0 5000 0 5000 -5000 0 -5000 0 0
-5000z m5114 3347 c63 -42 1524 -1606 1548 -1657 52 -107 30 -237 -55 -327
-80 -85 -113 -93 -372 -93 -118 0 -215 -3 -215 -6 0 -3 235 -279 521 -613 340
-395 530 -623 545 -656 66 -140 -2 -322 -145 -389 -42 -19 -69 -21 -289 -26
l-243 -5 536 -605 c359 -407 543 -622 561 -658 71 -141 2 -328 -145 -396 -46
-21 -54 -21 -991 -26 l-945 -5 -3 -156 -2 -155 205 -330 c113 -181 210 -346
215 -366 23 -82 -27 -192 -105 -232 -39 -21 -55 -21 -720 -24 -770 -3 -733 -6
-805 75 -43 50 -55 89 -48 162 4 42 33 93 211 378 l207 331 0 161 0 161 -933
0 c-1057 0 -987 -5 -1082 82 -94 85 -123 223 -71 334 16 35 183 232 561 660
l538 609 -244 5 c-230 5 -247 6 -291 28 -143 70 -208 254 -140 392 12 25 258
320 546 655 l525 610 -232 5 c-258 6 -272 9 -347 76 -23 21 -53 61 -68 88 -22
43 -27 64 -27 131 0 71 3 86 30 132 19 33 302 342 746 815 847 901 774 826
824 850 56 27 149 20 199 -15z"/>
</g>
</svg>
